<svg width="40" height="40" viewBox="0 0 40 40" fill="none" xmlns="http://www.w3.org/2000/svg">
<path d="M31.3196 8.36814C30.5961 7.22571 29.373 6.8768 28.5007 6.76804C27.5866 6.65416 26.8869 5.6881 26.6218 5.17479C26.0759 4.11556 25.0655 3.3083 23.8061 3.07068C23.5597 3.02379 23.3077 3 23.0576 3C22.4067 3 21.9028 3.16256 21.3018 3.3027C20.9091 3.39334 20.4633 3.60662 19.9681 3.60662C19.4728 3.60662 19.0276 3.39341 18.6356 3.3027C18.034 3.16256 17.5306 3 16.8797 3C16.6296 3 16.3776 3.02379 16.1313 3.07062C14.872 3.30823 13.8615 4.11549 13.3143 5.17472C13.0505 5.6881 12.3501 6.65416 11.436 6.76798C10.5637 6.87674 9.34121 7.22564 8.61777 8.36807C8.13692 9.09589 8 10.0438 8 11.0305V32.9939C8 35.759 10.241 38 13.006 38H26.9307C29.6951 38 31.9368 35.759 31.9368 32.9939V11.0306C31.9368 10.0439 31.8005 9.09596 31.3196 8.36814ZM21.5944 6.7055C22.426 5.98082 23.6873 6.06647 24.412 6.89813V6.89683C25.1367 7.7285 25.0511 8.99157 24.2201 9.71571C23.3884 10.4411 22.1272 10.3535 21.4013 9.52314C20.6771 8.69202 20.7635 7.43079 21.5944 6.7055ZM16.6734 6.24899C17.757 6.04391 18.8025 6.75608 19.0076 7.83979C19.2127 8.92397 18.4998 9.96823 17.4169 10.174C16.3325 10.3785 15.2877 9.6669 15.082 8.58258C14.8776 7.49901 15.5898 6.45407 16.6734 6.24899ZM11.077 13.261C10.2453 12.5369 10.1591 11.2751 10.8838 10.4435H10.8844C11.6091 9.6118 12.8703 9.52683 13.7019 10.2502C14.5336 10.9762 14.6199 12.2368 13.8946 13.0684C13.1693 13.8995 11.9087 13.9857 11.077 13.261ZM26.4498 21.1097C25.3043 24.0967 21.7264 22.8649 19.8248 22.8649C17.9233 22.8649 14.3454 24.0967 13.1999 21.1097C12.0137 18.0157 16.1112 13.668 19.8248 13.668C23.5378 13.668 27.636 18.0158 26.4498 21.1097ZM29.525 12.128C29.3199 13.2104 28.275 13.9238 27.1908 13.7175C26.1078 13.5125 25.395 12.4675 25.6001 11.3852C25.8052 10.3003 26.8507 9.58869 27.9336 9.79323C29.0179 9.99892 29.7301 11.0437 29.525 12.128Z" fill="#453732"/>
</svg>
