<svg width="40" height="40" viewBox="0 0 40 40" fill="none" xmlns="http://www.w3.org/2000/svg">
<path d="M37.5085 23.1218L32.8144 18.4277C34.2494 17.5022 35.1279 15.9129 35.1279 14.1895C35.1279 11.4066 32.8613 9.14 30.0784 9.14C27.2954 9.14 28.3348 9.37471 27.5637 9.81059L27.2485 9.99165L27.4497 10.2934C28.08 11.2255 28.4153 12.3119 28.4153 13.4318C28.4153 14.5516 28.0733 15.6715 27.4161 16.6104L27.2753 16.5098C27.9057 15.6045 28.2409 14.5449 28.2409 13.4251C28.2409 10.4342 25.8067 8 22.8159 8C19.8251 8 17.8871 9.938 17.4646 12.5466C17.1494 12.5935 16.8342 12.6539 16.5258 12.7209C13.3673 13.3915 11.0739 15.2155 9.69247 18.1393C8.63965 20.3724 8.37812 22.7664 8.33118 24.1746H7.17777C6.306 24.1746 5.52812 24.3221 4.86424 24.6038C4.20035 24.8921 3.67729 25.3079 3.35541 25.8175C3.12071 26.1931 3 26.6021 3 27.0179C3 27.4337 3.12071 27.8427 3.36212 28.2115C3.58341 28.5602 3.90529 28.862 4.30765 29.1168C5.10565 29.6131 6.1853 29.888 7.51977 29.9417C8.32447 29.9685 8.98836 30.0691 9.50471 30.2233C9.87353 30.3373 10.1686 30.4915 10.3496 30.6592C10.4301 30.7329 10.4838 30.8067 10.5173 30.8805C10.5575 30.9609 10.5709 31.0481 10.5709 31.1487C10.5709 31.3029 10.5173 31.4438 10.5106 31.4706L10.4771 31.5309V31.5511C10.3161 31.9735 10.5039 32.4631 10.9196 32.6709C11.0471 32.7313 11.1812 32.7648 11.322 32.7648C11.664 32.7648 11.9725 32.5704 12.1267 32.2686V32.2485C12.2877 31.9199 12.3748 31.5377 12.3748 31.142C12.3748 30.8805 12.3346 30.6257 12.2541 30.3842C12.1602 30.0959 12.006 29.8277 11.8048 29.5795C11.3689 29.0565 10.6984 28.6742 9.80647 28.4328C9.17612 28.2652 8.44518 28.1646 7.58012 28.1311C6.80224 28.1042 6.13165 27.9768 5.62871 27.7689C5.11906 27.5611 4.93129 27.3197 4.87094 27.2325C4.80388 27.1319 4.79718 27.0648 4.79718 27.0112C4.79718 26.9642 4.80388 26.8905 4.87765 26.7765C4.93129 26.696 5.03859 26.5686 5.23977 26.4278C5.5013 26.2601 6.09812 25.9718 7.16435 25.9718H8.36471V26.0053H36.3014C36.9921 26.0053 37.6091 25.5962 37.8706 24.9592C38.1321 24.3221 37.9913 23.5979 37.5018 23.1084L37.5085 23.1218ZM30.7758 20.9692C30.7758 21.3045 30.5008 21.5794 30.1655 21.5794C29.8302 21.5794 29.5553 21.3045 29.5553 20.9692C29.5553 20.6339 29.8302 20.3589 30.1655 20.3589C30.5008 20.3589 30.7758 20.6339 30.7758 20.9692Z" fill="#453732"/>
</svg>
