<svg width="40" height="40" viewBox="0 0 40 40" fill="none" xmlns="http://www.w3.org/2000/svg">
<path d="M20.5 37.4904C19.4071 37.4904 18.3209 37.2289 17.3487 36.7261L6.74808 31.2816C4.43487 30.0948 3 27.7481 3 25.1466V15.3372C3 12.7423 4.43487 10.3889 6.74808 9.20211L17.3487 3.76437C18.3209 3.2682 19.4071 3 20.5 3C21.5929 3 22.6791 3.26149 23.6513 3.76437L34.2519 9.20881C36.5651 10.3956 38 12.749 38 15.3439V25.1533C38 27.7481 36.5651 30.1015 34.2519 31.2883L23.6513 36.7328C22.6791 37.2289 21.5929 37.4971 20.5 37.4971V37.4904ZM5.83621 14.0766C5.70211 14.4923 5.63506 14.9148 5.63506 15.3439V25.1533C5.63506 26.7557 6.52012 28.2107 7.94828 28.9416L18.5489 34.386C18.8506 34.5402 19.1657 34.6542 19.501 34.7347V21.0967L5.83621 14.0766ZM21.4923 34.728C21.8276 34.6475 22.1494 34.5335 22.4444 34.3793L33.045 28.9349C34.4732 28.204 35.3582 26.749 35.3582 25.1466V15.3372C35.3582 14.908 35.2912 14.4856 35.1571 14.0699L21.4856 21.09V34.728H21.4923ZM20.5 19.3736L34.1446 12.3669C33.8228 12.0383 33.454 11.7634 33.045 11.5556L27.795 8.86015L13.9023 15.9943L20.4933 19.3803L20.5 19.3736ZM12.092 15.0556L25.9847 7.92146L22.4444 6.10441C21.8477 5.79598 21.1705 5.63506 20.5 5.63506C19.8295 5.63506 19.1523 5.79598 18.5556 6.10441L7.95498 11.5556C7.54598 11.7701 7.1772 12.0383 6.85536 12.3669L12.0987 15.0556H12.092Z" fill="#453732"/>
<path d="M34.0977 9.50383L23.4971 4.05939C22.5584 3.57663 21.5259 3.33525 20.5 3.33525C19.4741 3.33525 18.4416 3.57663 17.5029 4.05939L6.9023 9.50383C4.70977 10.6303 3.33525 12.8831 3.33525 15.3439V25.1533C3.33525 27.614 4.70977 29.8669 6.9023 30.9933L17.5029 36.4377C18.4416 36.9205 19.4741 37.1619 20.5 37.1619C21.5259 37.1619 22.5584 36.9205 23.4971 36.4377L34.0977 30.9933C36.2835 29.8669 37.6648 27.614 37.6648 25.1533V15.3439C37.6648 12.8831 36.2902 10.6303 34.0977 9.50383ZM7.80077 11.2538L18.4013 5.80939C19.0584 5.47414 19.7826 5.29981 20.5 5.29981C21.2174 5.29981 21.9416 5.46743 22.5987 5.80939L26.7222 7.92816L12.0987 15.4377L6.31226 12.4741C6.70785 11.978 7.21073 11.5623 7.79406 11.2605L7.80077 11.2538ZM19.8429 35.137C19.3467 35.0632 18.8573 34.9157 18.4013 34.681L7.80077 29.2366C6.26533 28.4454 5.30651 26.8697 5.30651 25.1466V15.3372C5.30651 14.727 5.43391 14.1437 5.65517 13.6006L19.8496 20.8889V35.137H19.8429ZM13.1715 15.9875L27.795 8.47797L33.1992 11.2538C33.7826 11.5556 34.2854 11.9713 34.681 12.4674L20.5 19.749L13.1715 15.9875ZM35.6935 25.1466C35.6935 26.8697 34.728 28.4454 33.1992 29.2366L22.5987 34.681C22.1427 34.9157 21.6533 35.0632 21.1571 35.137V20.8889L35.3515 13.6006C35.5728 14.1437 35.7002 14.7337 35.7002 15.3372V25.1466H35.6935Z" fill="#453732"/>
<path d="M9.37644 20.091L13.9693 22.2634C14.5594 22.545 15.0354 22.2902 15.0354 21.7002C15.0354 21.1102 14.5594 20.4061 13.9693 20.1312L9.37644 17.9588C8.7864 17.6772 8.31034 17.932 8.31034 18.522C8.31034 19.1121 8.7864 19.8161 9.37644 20.091Z" fill="#453732"/>
</svg>
