<svg width="542" height="441" viewBox="0 0 542 441" fill="none" xmlns="http://www.w3.org/2000/svg">
<g clip-path="url(#clip0_2178_299)">
<path d="M255.13 153.95L136.35 219.94L102.08 255.33L220.86 189.34L255.13 153.95Z" fill="#C1C1C1"/>
<path d="M445.3 363.31L255.13 305.72V153.95L445.3 211.54V363.31Z" fill="#999999"/>
<path d="M255.13 305.72L136.35 371.71V219.94L255.13 153.95V305.72Z" fill="#A8A8A8"/>
<path d="M447.63 43.43L416.37 36.39C416.37 36.39 420.17 45.38 418.76 49.66C417.35 53.94 410.86 69.12 419.14 73.45C427.42 77.78 434.63 83.95 434.63 83.95L452.72 56.83L447.64 43.42L447.63 43.43Z" fill="#EAA58D"/>
<path d="M450.78 52.45L449.67 48.82L417.31 53.78C417.31 53.78 413.24 63.68 415.87 70.06L450.77 52.46L450.78 52.45Z" fill="#F4D4CE"/>
<path d="M472.15 75.67C490.607 75.67 505.57 60.7074 505.57 42.25C505.57 23.7926 490.607 8.83 472.15 8.83C453.693 8.83 438.73 23.7926 438.73 42.25C438.73 60.7074 453.693 75.67 472.15 75.67Z" fill="#EAA58D"/>
<path d="M500.3 39.96L531.3 48.07C531.3 48.07 527.81 38.95 529.37 34.72C530.93 30.49 537.94 15.54 529.81 10.93C521.68 6.30999 514.69 -0.100006 514.69 -0.100006L495.68 26.38L500.3 39.95V39.96Z" fill="#EAA58D"/>
<path d="M497.46 30.84L498.44 34.51L530.95 30.67C530.95 30.67 535.36 20.91 532.95 14.45L497.46 30.84Z" fill="#F4D4CE"/>
<path d="M292.96 350.75C359.25 350.75 367.04 296.29 367.04 278.11C367.04 259.93 362.81 200.35 362.1 191.79C361.39 183.24 354.24 104.72 349.07 81.91C343.9 59.1 336.08 46.93 332.21 39.78C328.91 33.68 320.84 33.81 317.84 39.31C315.99 42.7 302.22 71.33 302.22 71.33H277.56C277.56 71.33 263.79 42.71 261.94 39.31C258.94 33.82 250.87 33.68 247.57 39.78C243.7 46.93 235.88 59.1 230.71 81.91C225.54 104.72 218.39 183.24 217.68 191.79C216.97 200.34 212.74 259.93 212.74 278.11C212.74 296.29 220.53 350.75 286.82 350.75H292.95H292.96Z" fill="#453732" stroke="#453732" stroke-width="0.63" stroke-miterlimit="10"/>
<path d="M266.78 116.22C269.437 116.22 271.59 112.495 271.59 107.9C271.59 103.305 269.437 99.58 266.78 99.58C264.124 99.58 261.97 103.305 261.97 107.9C261.97 112.495 264.124 116.22 266.78 116.22Z" fill="#FFF800"/>
<path d="M313 116.22C315.656 116.22 317.81 112.495 317.81 107.9C317.81 103.305 315.656 99.58 313 99.58C310.343 99.58 308.19 103.305 308.19 107.9C308.19 112.495 310.343 116.22 313 116.22Z" fill="#FFF800"/>
<path d="M350.49 296.02C348.91 296.02 347.45 295.69 346 295.02L340.93 292.66C338.31 291.44 336.4 289.36 335.41 286.65C334.42 283.94 334.54 281.12 335.76 278.5L387.39 167.4C389.13 163.65 392.93 161.23 397.07 161.23C398.65 161.23 400.11 161.56 401.56 162.23L406.43 164.49C408.11 165.27 409.93 165.67 411.75 165.67C413.21 165.67 414.68 165.42 416.08 164.9C419.22 163.75 421.78 161.4 423.19 158.36L448.12 104.7C449.86 100.95 453.66 98.53 457.8 98.53C459.38 98.53 460.84 98.86 462.29 99.53L467.36 101.89C472.69 104.37 475.01 110.72 472.54 116.05L437.9 190.58C436.16 194.33 432.36 196.75 428.22 196.75C426.64 196.75 425.18 196.42 423.73 195.75L418.86 193.49C417.14 192.69 415.33 192.31 413.55 192.31C408.79 192.31 404.23 195.02 402.09 199.62L360.16 289.84C358.42 293.59 354.62 296.01 350.48 296.01L350.49 296.02Z" stroke="#453732" stroke-width="0.63" stroke-miterlimit="10"/>
<path d="M350.49 296.02C348.91 296.02 347.45 295.69 346 295.02L340.93 292.66C338.31 291.44 336.4 289.36 335.41 286.65C334.42 283.94 334.54 281.12 335.76 278.5L387.39 167.4C389.13 163.65 392.93 161.23 397.07 161.23C398.65 161.23 400.11 161.56 401.56 162.23L406.43 164.49C408.11 165.27 409.93 165.67 411.75 165.67C413.21 165.67 414.68 165.42 416.08 164.9C419.22 163.75 421.78 161.4 423.19 158.36L448.12 104.7C449.86 100.95 453.66 98.53 457.8 98.53C459.38 98.53 460.84 98.86 462.29 99.53L467.36 101.89C472.69 104.37 475.01 110.72 472.54 116.05L437.9 190.58C436.16 194.33 432.36 196.75 428.22 196.75C426.64 196.75 425.18 196.42 423.73 195.75L418.86 193.49C417.14 192.69 415.33 192.31 413.55 192.31C408.79 192.31 404.23 195.02 402.09 199.62L360.16 289.84C358.42 293.59 354.62 296.01 350.48 296.01L350.49 296.02Z" fill="#453732"/>
<path d="M445.3 363.31L326.52 429.3L136.35 371.7L255.13 305.71L445.3 363.31Z" fill="#EFEFEF"/>
<path d="M326.52 429.3L136.35 371.71V219.94L326.52 277.53V429.3Z" fill="#D8D8D8"/>
<path d="M445.3 363.31L326.52 429.3V277.53L445.3 211.54V363.31Z" fill="#C6C6C6"/>
<path d="M326.52 277.54L287.53 343.53L97.3599 285.93L136.35 219.94L326.52 277.54Z" fill="#EFEFEF"/>
<path d="M489.61 272.72L370.83 338.71L326.52 277.53L445.3 211.54L489.61 272.72Z" fill="#EFEFEF"/>
<path d="M160.13 145.45C160.25 143.54 162.17 140.25 163.73 139.27C168.25 136.42 176.33 132.02 180.2 134.23C185.74 137.4 185.14 144.91 180.56 152.91C175.98 160.91 169.17 166.37 163.63 163.2C159.73 160.97 159.77 151.1 160.14 145.45H160.13Z" fill="#A0B9E0"/>
<mask id="mask0_2178_299" style="mask-type:luminance" maskUnits="userSpaceOnUse" x="72" y="81" width="98" height="71">
<path d="M164.22 150.34C159.67 150.91 151.19 151.44 145.42 151.32C142.09 151.25 139.21 151.19 135.57 150.86C130.74 150.42 127.33 149.88 125.33 149.5C119.1 148.33 114.26 146.94 109.14 144.84C107.64 144.22 103.06 142.35 96.0598 137.53C94.0298 136.13 91.3698 134.2 89.5298 132.57C85.8498 129.32 84.9798 128.54 81.8098 124.91C80.6698 123.6 79.3398 121.7 78.3498 120.28C77.8398 119.56 77.2698 118.52 76.8198 117.77C75.9698 116.37 75.1098 114.35 74.4898 112.83C74.0798 111.82 72.0698 106.48 72.6798 100.66C73.1098 96.61 74.5198 93.06 76.8798 90.11C80.1798 85.98 84.4298 84.16 85.8298 83.56C86.9498 83.08 88.5098 82.62 89.6798 82.29C90.3898 82.09 91.3698 81.93 92.0998 81.79C93.6498 81.49 95.7698 81.38 97.3598 81.31C100.02 81.2 104.99 81.61 109.59 82.77C111.73 83.31 114.56 84.16 116.63 84.92C118.91 85.76 121.88 87.08 124.09 88.09C126.28 89.15 128.52 90.35 130.81 91.69C149.67 102.75 162.78 127.55 168.9 141.27C169.78 143.25 169.67 145.41 168.86 147.26C169.67 145.42 169.78 143.26 168.9 141.27C162.78 127.54 149.67 102.75 130.81 91.69C128.52 90.35 126.28 89.15 124.09 88.09C126.22 89.17 129.03 90.67 131.1 91.84C132.06 92.38 133.28 93.22 134.21 93.81C135.18 94.43 138.45 96.89 139.83 98.13C140.64 98.86 141.74 99.79 142.52 100.56C145.19 103.21 146 104.01 147.42 105.64C149.12 107.59 152.27 111.23 155.86 116.59C159.92 122.66 162.22 127.02 163.91 130.2C165.87 133.9 169.17 141.08 169.6 142.59C170.05 144.13 169.89 145.9 169.19 147.2C168.48 148.52 167.16 149.57 165.57 150.06C164.97 150.25 164.5 150.31 164.24 150.34H164.22Z" fill="white"/>
</mask>
<g mask="url(#mask0_2178_299)">
<path d="M97.5895 81.3C95.1795 81.41 92.6995 81.53 89.6495 82.28C88.5095 82.61 87.0095 83.1 85.8895 83.51C83.0695 84.69 79.3995 88.51 76.4895 93.59C73.7195 98.44 72.3695 103.16 72.7295 106.02L72.7495 106.17C73.0695 108.07 73.4095 110.04 74.4595 112.82C75.0295 114.15 75.8295 115.91 76.4795 117.2C74.6295 113.59 76.4995 105.28 81.3995 96.7C86.5395 87.7 93.3195 81.4 97.5895 81.29" fill="#FFF800"/>
<path d="M111.2 83.19C107.24 82.23 104.85 81.65 100.17 81.35L97.5996 81.3C93.3296 81.41 86.5596 87.71 81.4096 96.71C76.5096 105.29 74.6396 113.6 76.4896 117.21C77.7596 119.37 79.2096 121.82 81.7896 124.91C82.6996 125.92 83.8996 127.28 84.8396 128.25C81.3896 124.65 83.5196 113.51 90.1096 101.98C96.9396 90.03 106.11 81.96 111.2 83.19Z" fill="#FFF800"/>
<path d="M138.34 97.05C135.93 95.04 133.41 93.22 130.78 91.68C129.36 90.85 127.97 90.07 126.59 89.35C121.27 86.78 110.62 95.8 102.79 109.5C95.2097 122.75 93.0597 135.52 97.7497 138.66C99.0297 139.46 100.73 140.55 102.03 141.31C103.21 141.95 104.79 142.82 105.99 143.42C107.48 144.09 109.47 144.96 110.98 145.57C98.9997 139.41 121.11 100.87 134.26 96.96C136.56 96.28 137.81 96.82 138.34 97.05Z" fill="white"/>
<path d="M130.779 91.68C133.409 93.22 135.929 95.04 138.339 97.05C138.639 97.19 138.909 97.37 139.159 97.58L136.959 95.82C133.319 93.18 133.179 93.08 131.069 91.84C129.759 91.11 128.029 90.11 126.699 89.42C126.659 89.4 126.629 89.38 126.589 89.36C127.969 90.08 129.369 90.86 130.779 91.69" fill="white"/>
<path d="M155.4 116.65C153.01 113.09 150.39 109.57 147.54 106.24C135.34 101.88 116.42 138.54 121.49 147.36C122.36 148.87 123.56 149.14 124.02 149.24C125.46 149.5 127.38 149.84 128.83 150.06C131.81 150.447 134.083 150.71 135.65 150.85L137.06 150.96C128.53 149.52 138.31 126.5 148.87 118.58C152.76 115.66 154.67 116.38 155.4 116.65Z" fill="#A0B9E0"/>
<path d="M155.4 116.65C156.02 117.04 156.13 117.11 156.58 117.7L155.79 116.52C153.23 112.85 153.18 112.78 151.78 110.95C150.87 109.8 149.65 108.28 148.71 107.15C148.39 106.84 147.92 106.47 147.54 106.24C150.39 109.56 153.01 113.09 155.4 116.65Z" fill="white"/>
<path d="M166.879 136.96C165.459 133.98 163.779 130.68 161.869 127.23C159.309 125.99 154.189 130.33 150.419 136.92C146.649 143.51 145.669 149.85 148.229 151.09C148.539 151.24 148.879 151.31 149.249 151.3C150.779 151.26 152.829 151.2 154.359 151.13C156.713 150.99 158.469 150.873 159.629 150.78H159.759C159.499 150.79 159.259 150.75 159.059 150.65C157.589 149.94 158.149 146.3 160.319 142.52C162.489 138.74 165.429 136.24 166.899 136.95" fill="white"/>
<path d="M166.88 136.96C167.14 137.09 167.34 137.31 167.48 137.61L167.43 137.5C166.08 134.59 165.97 134.35 165.17 132.73C164.48 131.36 163.54 129.54 162.82 128.18C162.59 127.75 162.28 127.43 161.87 127.24C163.79 130.68 165.46 133.98 166.88 136.97" fill="white"/>
<path d="M147.54 106.25C144.69 102.93 141.62 99.8 138.34 97.05C124.52 92.11 103.08 133.65 108.82 143.65C109.58 144.97 110.56 145.39 110.98 145.58C112.2 146.01 113.83 146.6 115.06 146.99C118.02 147.843 120.306 148.45 121.92 148.81L124.02 149.25C113.04 145.89 129.32 113.37 142.15 106.9C145.39 105.27 147.01 106 147.55 106.24" fill="#A0B9E0"/>
<path d="M147.539 106.25C147.919 106.49 148.389 106.85 148.709 107.16L147.309 105.55C144.229 102.22 144.109 102.09 142.369 100.45C141.409 99.58 140.139 98.42 139.159 97.58C138.909 97.37 138.639 97.2 138.339 97.05C141.629 99.8 144.699 102.92 147.539 106.25Z" fill="#A0B9E0"/>
<path d="M161.869 127.24C159.949 123.8 157.799 120.21 155.409 116.66C145.689 113.19 130.619 142.4 134.649 149.43C135.389 150.72 136.479 150.89 137.069 150.98C138.629 151.07 140.699 151.19 142.259 151.26C145.033 151.32 147.123 151.343 148.529 151.33H149.239C148.869 151.33 148.529 151.26 148.219 151.11C145.659 149.87 146.639 143.53 150.409 136.94C154.179 130.35 159.299 126.01 161.859 127.25" fill="#A0B9E0"/>
<path d="M161.87 127.24C162.27 127.43 162.59 127.75 162.82 128.18L162.48 127.55C160.53 124.05 160.45 123.92 159.36 122.1C158.54 120.77 157.43 119.01 156.59 117.7C156.12 117.12 156.02 117 155.41 116.65C157.8 120.21 159.96 123.79 161.87 127.23" fill="#A0B9E0"/>
<path d="M168.87 141.27C169.75 143.25 169.64 145.41 168.83 147.26C169.64 145.42 169.75 143.26 168.87 141.27C168.27 139.93 167.61 138.49 166.88 136.96C165.41 136.25 162.47 138.74 160.3 142.53C158.13 146.32 157.57 149.96 159.04 150.66C159.25 150.76 159.48 150.8 159.74 150.77C161.08 150.65 162.87 150.47 164.21 150.33C164.61 150.27 165.16 150.2 165.9 149.93C166.33 149.76 166.49 149.69 166.93 149.44C167.21 149.27 167.29 149.22 167.59 149C167.74 148.88 167.9 148.75 168.04 148.62C168.15 148.51 168.26 148.4 168.37 148.29C168.45 148.19 168.54 148.1 168.62 148C168.69 147.91 168.76 147.82 168.82 147.73C168.91 147.6 168.99 147.47 169.07 147.34C169.12 147.25 169.17 147.16 169.22 147.06C169.27 146.96 169.31 146.86 169.36 146.76C169.41 146.64 169.45 146.53 169.49 146.41C169.54 146.27 169.58 146.12 169.62 145.97C169.66 145.78 169.7 145.59 169.73 145.4C169.77 145.1 169.78 145.01 169.8 144.63C169.8 144.22 169.8 144.03 169.75 143.54C169.66 142.96 169.58 142.53 169.26 141.72C168.73 140.48 168.01 138.83 167.46 137.6C167.32 137.3 167.13 137.08 166.86 136.95C167.59 138.48 168.25 139.92 168.85 141.26" fill="#A0B9E0"/>
<path d="M126.59 89.36C125.74 88.92 124.9 88.49 124.06 88.09C119.3 85.93 116.91 84.84 111.2 83.19C106.11 81.96 96.9396 90.04 90.1096 101.98C83.5196 113.51 81.3896 124.64 84.8396 128.25C88.0796 131.37 91.1496 134.31 97.7496 138.67C93.0696 135.53 95.2196 122.76 102.79 109.51C110.62 95.82 121.28 86.79 126.59 89.36Z" fill="#FFF800"/>
<path d="M126.59 89.36C126.59 89.36 126.67 89.4 126.7 89.42L124.06 88.09C124.9 88.49 125.74 88.92 126.59 89.36Z" fill="#A0B9E0"/>
</g>
<path d="M169.08 147.34C168.5 148.34 167.71 148.97 167.15 149.32C165.9 150.1 164.85 150.25 164.29 150.33C163.38 150.46 157.97 150.99 154.36 151.14C148.13 151.4 145.94 151.35 142.31 151.25C138.55 151.15 132.58 150.78 125.43 149.52C120.88 148.72 115.26 147.22 111.77 145.88C110.01 145.2 107.69 144.23 105.98 143.44C104.76 142.87 103.17 142.03 102.02 141.33C99.7602 139.95 96.7602 138.07 94.6002 136.53C92.6402 135.13 90.0702 133.18 88.3002 131.54C86.7002 130.05 84.5902 128.03 83.1002 126.43C82.0302 125.28 80.6802 123.68 79.7802 122.39C78.7502 120.92 77.3702 118.95 76.5402 117.35C75.6602 115.64 74.5602 113.52 73.7002 110.63C72.5802 106.87 72.4902 104.13 72.5402 102.16C72.6102 99.63 73.1302 97.12 74.1102 94.72C75.0102 92.5 76.4002 90.42 78.2402 88.55C81.0002 85.73 84.3102 84.23 84.4502 84.17C85.5202 83.69 86.9702 83.09 88.0902 82.74C89.2102 82.39 90.8302 81.97 92.0402 81.8C93.6102 81.59 95.7102 81.35 97.2902 81.32C99.7402 81.28 100.55 81.36 103.24 81.63C103.69 81.68 107.83 82.12 113.28 83.82C114.36 84.16 115.81 84.62 116.87 85.04C119.05 85.91 121.92 87.13 124.05 88.11C101.19 77.07 83.8402 81.15 76.3102 93C83.8402 81.15 101.2 77.07 124.05 88.11C127.944 90.1033 131.24 91.96 133.94 93.68C135.82 94.88 138.11 96.77 139.63 98.02C139.88 98.23 145.82 103.16 151.77 110.99C154 113.92 159.92 121.72 166.33 135.18C167.52 137.67 168.48 139.89 169.26 141.73C169.51 142.32 169.61 142.77 169.67 143.04C170 144.51 169.77 146.16 169.08 147.36V147.34Z" fill="#FFF800"/>
<mask id="mask1_2178_299" style="mask-type:luminance" maskUnits="userSpaceOnUse" x="72" y="81" width="98" height="71">
<path d="M169.08 147.34C168.5 148.34 167.71 148.97 167.15 149.32C165.9 150.1 164.85 150.25 164.29 150.33C163.38 150.46 157.97 150.99 154.36 151.14C148.13 151.4 145.94 151.35 142.31 151.25C138.55 151.15 132.58 150.78 125.43 149.52C120.88 148.72 115.26 147.22 111.77 145.88C110.01 145.2 107.69 144.23 105.98 143.44C104.76 142.87 103.17 142.03 102.02 141.33C99.7602 139.95 96.7602 138.07 94.6002 136.53C92.6402 135.13 90.0702 133.18 88.3002 131.54C86.7002 130.05 84.5902 128.03 83.1002 126.43C82.0302 125.28 80.6802 123.68 79.7802 122.39C78.7502 120.92 77.3702 118.95 76.5402 117.35C75.6602 115.64 74.5602 113.52 73.7002 110.63C72.5802 106.87 72.4902 104.13 72.5402 102.16C72.6102 99.63 73.1302 97.12 74.1102 94.72C75.0102 92.5 76.4002 90.42 78.2402 88.55C81.0002 85.73 84.3102 84.23 84.4502 84.17C85.5202 83.69 86.9702 83.09 88.0902 82.74C89.2102 82.39 90.8302 81.97 92.0402 81.8C93.6102 81.59 95.7102 81.35 97.2902 81.32C99.7402 81.28 100.55 81.36 103.24 81.63C103.69 81.68 107.83 82.12 113.28 83.82C114.36 84.16 115.81 84.62 116.87 85.04C119.05 85.91 121.92 87.13 124.05 88.11C101.19 77.07 83.8402 81.15 76.3102 93C83.8402 81.15 101.2 77.07 124.05 88.11C127.944 90.1033 131.24 91.96 133.94 93.68C135.82 94.88 138.11 96.77 139.63 98.02C139.88 98.23 145.82 103.16 151.77 110.99C154 113.92 159.92 121.72 166.33 135.18C167.52 137.67 168.48 139.89 169.26 141.73C169.51 142.32 169.61 142.77 169.67 143.04C170 144.51 169.77 146.16 169.08 147.36V147.34Z" fill="white"/>
</mask>
<g mask="url(#mask1_2178_299)">
<path d="M89.6499 82.28C92.5199 81.68 94.0999 81.35 97.5899 81.3C98.1899 81.28 98.7299 81.39 99.2199 81.63C95.3099 81.63 91.7499 82.24 88.5999 83.35C87.8699 83 86.9399 83.07 85.8999 83.51C87.0099 83.1 88.5099 82.57 89.6599 82.28" fill="#FFF800"/>
<path d="M98.99 81.08C102.97 83 101.44 92.87 95.58 103.12C89.72 113.37 81.74 120.13 77.76 118.2C77.11 117.89 76.61 117.36 76.25 116.66C75.61 115.36 74.78 113.61 74.23 112.28C73.6 110.42 72.89 108.32 72.52 105.63L72.5 105.48C72.65 106.73 73.13 107.62 73.95 108.02C76.65 109.33 82.07 104.74 86.05 97.78C90.03 90.82 91.07 84.12 88.36 82.81C91.51 81.69 95.07 81.09 98.98 81.09" fill="#FFF800"/>
<path d="M100.16 81.35C104.22 81.7 106.07 81.86 111.19 83.19C111.46 83.26 111.72 83.35 111.97 83.47C107.39 82.21 103.13 81.62 99.2101 81.63C98.7201 81.39 98.1701 81.29 97.5801 81.3L100.15 81.35" fill="#FFF800"/>
<path d="M111.98 83.47C116.87 85.83 114.99 97.94 107.8 110.53C100.61 123.12 90.8102 131.41 85.9302 129.05C85.5202 128.85 85.1602 128.59 84.8402 128.26C83.9202 127.26 82.6702 125.95 81.7902 124.92C80.2002 122.9 78.2102 120.39 76.4902 117.22C76.8502 117.92 77.3502 118.45 78.0002 118.76C81.9802 120.68 89.9602 113.93 95.8202 103.68C102.82 91.21 103.29 83.4 99.2302 81.64C103.14 81.64 107.41 82.22 111.99 83.48" fill="#FFF800"/>
<path d="M131.07 91.84C134.86 94.23 134.93 94.27 136.96 95.82L139.16 97.58C149.53 108.24 123.38 146.74 112.26 145.86C111.87 145.83 111.36 145.7 110.99 145.58C109.48 144.96 107.48 144.12 106 143.43C104.81 142.81 103.21 141.99 102.04 141.32C100.75 140.53 99.0298 139.49 97.7598 138.67C97.9198 138.78 98.0798 138.87 98.2498 138.95C103.57 141.52 114.22 132.5 122.05 118.8C129.82 105.2 131.89 92.11 126.71 89.41C128.02 90.13 129.8 91.06 131.08 91.83" fill="#FFF800"/>
<path d="M151.78 110.96C153.573 113.373 154.91 115.23 155.79 116.53L156.58 117.71C158.62 120.8 156.95 128.7 152.28 136.86C147.41 145.38 140.95 151.26 137.06 150.97L135.65 150.86C131.28 150.43 131.11 150.41 128.83 150.07C127.38 149.83 125.46 149.52 124.02 149.25C128.82 150.2 137.3 142.68 143.63 131.6C149.96 120.52 151.73 110.7 148.72 107.15C149.65 108.28 150.9 109.78 151.79 110.95" fill="#FFF800"/>
<path d="M165.16 132.72C166.187 134.84 166.94 136.43 167.42 137.49L167.47 137.6C168.09 138.97 167.39 141.98 165.62 145.09C163.85 148.2 161.33 150.64 159.75 150.77H159.62C156.42 151.02 156.15 151.04 154.35 151.13C152.82 151.19 150.77 151.26 149.24 151.3C151.98 151.26 156.35 147.2 159.67 141.4C162.84 135.85 164.04 130.47 162.81 128.18C163.52 129.54 164.48 131.35 165.16 132.73" fill="#FFF800"/>
<path d="M142.37 100.44C144.564 102.607 146.21 104.307 147.31 105.54L148.71 107.15C151.72 110.69 149.7 120.96 143.62 131.6C137.54 142.24 128.81 150.2 124.01 149.25L121.91 148.81C117.5 147.74 117.33 147.7 115.05 146.99C113.82 146.57 112.18 146.03 110.97 145.58C125.34 149.46 146.2 107.85 140 98.55C139.79 98.23 139.43 97.85 139.15 97.58C140.12 98.43 141.43 99.55 142.36 100.45" fill="#A0B9E0"/>
<path d="M159.35 122.1C160.756 124.493 161.796 126.31 162.47 127.55L162.81 128.18C164.04 130.47 162.85 135.85 159.67 141.4C156.35 147.2 151.98 151.26 149.24 151.3H148.53C144.61 151.31 144.37 151.31 142.26 151.24C140.7 151.17 138.62 151.07 137.07 150.96C140.95 151.25 147.42 145.36 152.29 136.85C156.96 128.68 158.63 120.78 156.59 117.7C157.43 119.01 158.56 120.76 159.36 122.1" fill="#A0B9E0"/>
<path d="M169.27 141.72C169.46 142.2 169.63 142.65 169.76 143.54C169.8 143.93 169.82 144.13 169.81 144.63C169.79 144.96 169.79 145.04 169.74 145.4C169.71 145.59 169.67 145.78 169.63 145.97C169.59 146.12 169.55 146.26 169.5 146.41C169.46 146.53 169.42 146.65 169.37 146.76C169.33 146.86 169.28 146.96 169.23 147.06C169.18 147.15 169.13 147.25 169.08 147.34C169 147.47 168.92 147.6 168.83 147.73C168.76 147.82 168.7 147.91 168.63 148C168.55 148.1 168.47 148.2 168.38 148.29C168.27 148.4 168.17 148.51 168.05 148.62C167.9 148.75 167.75 148.88 167.6 149C167.35 149.18 167.27 149.24 166.94 149.44C166.51 149.68 166.38 149.75 165.91 149.93C165.54 150.06 165.03 150.24 164.22 150.33C162.88 150.47 161.09 150.65 159.75 150.77C161.33 150.64 163.77 148.34 165.62 145.09C167.47 141.84 168.09 138.97 167.47 137.6C168.02 138.83 168.76 140.47 169.27 141.72Z" fill="#A0B9E0"/>
<path d="M124.06 88.08C119.84 86.04 115.8 84.52 111.98 83.46C111.73 83.34 111.47 83.25 111.2 83.18C115.89 84.6 118.03 85.25 124.06 88.08Z" fill="#A0B9E0"/>
<path d="M124.06 88.08L126.7 89.41C131.87 92.11 129.81 105.2 122.04 118.8C114.21 132.49 103.55 141.52 98.2398 138.95C98.0698 138.87 97.8998 138.77 97.7498 138.67C93.3998 135.68 89.6498 133.09 84.8398 128.25C85.1598 128.58 85.5198 128.85 85.9298 129.04C90.8198 131.4 100.61 123.11 107.8 110.52C114.99 97.93 116.87 85.82 111.98 83.46C115.8 84.51 119.84 86.04 124.06 88.08Z" fill="#A0B9E0"/>
</g>
<path d="M102.33 92.95L96.5198 94.92L94.5498 89.11L92.8598 89.68L94.8398 95.5L89.0298 97.47L89.5998 99.15L95.4098 97.18L97.3798 102.99L99.0698 102.42L97.0898 96.61L102.91 94.63L102.33 92.95Z" fill="#A0B9E0"/>
<path d="M438.85 352.07C430.83 359.84 424.94 369.71 422.8 380.29C421.02 389.1 415.93 415.99 430.4 417.2C451.52 418.96 474.83 407.62 491.61 395.55C498.68 390.46 504.81 383.2 506.42 374.43C509.58 357.28 495.98 335.6 477.46 335.5C463.34 335.42 449.29 341.97 438.85 352.07Z" fill="#8E8880"/>
<path d="M464.46 383.16C461.48 386.31 458.87 388.56 454.48 384.52C450.09 380.48 452.3 377.63 455.27 374.48C458.25 371.33 462.72 370.72 465.25 373.12C467.79 375.52 467.43 380.01 464.46 383.16Z" fill="#FFF800"/>
<path d="M431.68 368.28C432.37 371.58 432.82 371.47 428.46 375.19C424.1 378.91 423.44 373.44 422.75 370.14C422.06 366.84 423.5 363.75 425.97 363.23C428.44 362.71 430.99 364.98 431.68 368.28Z" fill="#FFF800"/>
<path d="M448.32 401.23C450.943 401.23 453.07 399.103 453.07 396.48C453.07 393.857 450.943 391.73 448.32 391.73C445.696 391.73 443.57 393.857 443.57 396.48C443.57 399.103 445.696 401.23 448.32 401.23Z" fill="#453732" stroke="#453732" stroke-width="0.12" stroke-miterlimit="10"/>
<path d="M425.74 387.53C425.28 387.49 424.81 387.51 424.33 387.61C421.76 388.14 420.12 390.66 420.65 393.22C421.07 395.25 422.74 396.7 424.69 396.96C424.69 396.96 425.65 396.13 426.14 392.79C426.63 389.45 425.74 387.53 425.74 387.53Z" fill="#453732" stroke="#453732" stroke-width="0.12" stroke-miterlimit="10"/>
<path d="M431.733 414.589C432.263 413.41 431.42 411.881 429.849 411.174C428.278 410.466 426.574 410.847 426.043 412.026C425.512 413.204 426.356 414.733 427.927 415.441C429.498 416.148 431.202 415.767 431.733 414.589Z" fill="#FFF800"/>
<path d="M498.94 348.48C502.12 344.84 505.76 341.59 509.73 338.83C513.36 336.32 517.42 334.17 521.81 333.79C527.47 333.3 533.25 336 536.69 340.52C540.13 345.04 541.2 351.22 539.68 356.69C538.63 360.48 536.46 363.86 534.15 367.04C531.36 370.9 528.34 374.58 525.31 378.26C522.65 381.5 519.91 384.89 518.99 388.98C518.07 393.07 519.59 398.03 523.46 399.64" stroke="#8E8880" stroke-width="2.52" stroke-linecap="round" stroke-linejoin="round"/>
<path d="M520.11 399.63C521.745 399.63 523.07 398.305 523.07 396.67C523.07 395.035 521.745 393.71 520.11 393.71C518.475 393.71 517.15 395.035 517.15 396.67C517.15 398.305 518.475 399.63 520.11 399.63Z" fill="#8E8880"/>
<path d="M66.5811 325.604L188.341 441.11L190.172 439.18L68.4118 323.675L66.5811 325.604Z" fill="#FFF800"/>
<path d="M63.6898 331.27C61.4998 331.4 58.3698 329.76 56.9898 328.98C54.4598 327.54 52.2198 325.63 50.1598 323.58C42.2398 315.69 40.3298 312.76 38.7498 311.06C37.1598 309.37 30.0198 302.44 26.2298 300.89C22.4398 299.34 17.3598 296.78 10.5098 289.15C3.65978 281.52 2.91978 279.13 1.52978 273.87C0.139783 268.61 -0.150217 264.95 1.52978 262.59C4.93978 257.78 12.5198 260.42 16.2798 263.02C20.4798 265.91 24.4298 269.22 28.3198 272.5C32.7498 276.24 37.6898 279.62 41.8898 283.6C44.9498 286.51 49.0398 287.94 51.3398 291.06C53.6398 294.18 70.5498 306.65 71.6398 311.44C72.3698 314.66 74.9498 318.79 73.4098 322.03C72.7798 323.35 72.0098 324.61 71.1298 325.78C70.1798 327.04 70.5098 327.73 70.1198 329.16C69.8198 330.27 68.4998 329.93 67.6598 329.94C66.0698 329.95 65.1498 331.19 63.7098 331.27H63.6898Z" fill="#A0B9E0"/>
</g>
<defs>
<clipPath id="clip0_2178_299">
<rect width="541" height="441" fill="white" transform="translate(0.5)"/>
</clipPath>
</defs>
</svg>
